<?xml version="1.0" standalone="no"?>
<!DOCTYPE svg PUBLIC "-//W3C//DTD SVG 20010904//EN"
 "http://www.w3.org/TR/2001/REC-SVG-20010904/DTD/svg10.dtd">
<svg version="1.0" xmlns="http://www.w3.org/2000/svg"
 width="446.000000pt" height="452.000000pt" viewBox="0 0 446.000000 452.000000"
 preserveAspectRatio="xMidYMid meet">

<g transform="translate(0.000000,452.000000) scale(0.100000,-0.100000)"
fill="#f2f3f5" stroke="none">
<path fill="#f2f3f5" d="M1270 3440 l0 -120 960 0 960 0 0 120 0 120 -960 0 -960 0 0 -120z"/>
<path d="M1270 2560 l0 -600 840 0 840 0 0 -180 0 -180 -840 0 -840 0 0 -120
0 -120 960 0 960 0 0 600 0 600 -840 0 -840 0 0 180 0 180 840 0 840 0 0 120
0 120 -960 0 -960 0 0 -600z m1680 -300 l0 -60 -720 0 -720 0 0 60 0 60 720 0
720 0 0 -60z"/>
<path d="M1270 1080 l0 -120 960 0 960 0 0 120 0 120 -960 0 -960 0 0 -120z"/>
</g>
</svg>
